<?xml version="1.0" encoding="UTF-8"?>
<svg version="1.1" xmlns="http://www.w3.org/2000/svg" width="100" height="100">
  <path d="M0 0 C1.69140625 1.20703125 1.69140625 1.20703125 3 3 C3.37109375 5.34765625 3.37109375 5.34765625 3.4375 8.0625 C3.84821744 14.37413739 5.28107935 20.76668896 9.4453125 25.71875 C14.36188394 29.77059782 22.83626468 28.25699811 28.7890625 27.7734375 C30.86260534 27.54304385 32.93199804 27.2757336 35 27 C35.144375 26.360625 35.28875 25.72125 35.4375 25.0625 C36 23 36 23 37 22 C42.73611111 21.72685185 42.73611111 21.72685185 45 22 C47 24 47 24 47.25 27.4375 C47 31 47 31 45 34 C42.89624023 34.30883789 42.89624023 34.30883789 40.30859375 34.22265625 C39.36306641 34.20396484 38.41753906 34.18527344 37.44335938 34.16601562 C35.95545898 34.11477539 35.95545898 34.11477539 34.4375 34.0625 C27.2401279 33.8365304 20.97056392 34.0680569 14 36 C12.63392985 37.14913969 12.63392985 37.14913969 12.75 40.25 C12.82610849 46.24082517 13.38478547 55.18411307 17.578125 59.69921875 C18.04734375 60.12847656 18.5165625 60.55773437 19 61 C19.4375 64 19.4375 64 19 67 C16.74827097 69.59814888 15.34982295 69.95716454 11.9375 70.375 C9 70 9 70 7.125 68.9375 C5.38026523 65.93267901 5.69164557 63.39189869 6 60 C6.66 59.34 7.32 58.68 8 58 C8.09798652 55.68775181 8.09798652 55.68775181 7.75 53.125 C7.66234375 52.26132813 7.5746875 51.39765625 7.484375 50.5078125 C7.00349575 48.01809898 6.2453726 46.194714 5 44 C-0.34680994 43.49078001 -2.78482372 44.77135434 -7 48 C-8.3303125 48.928125 -8.3303125 48.928125 -9.6875 49.875 C-12.20338837 51.91237403 -12.20338837 51.91237403 -13.4375 55.125 C-15 58 -15 58 -17.875 59.625 C-21 60 -21 60 -23.9375 58.5625 C-26 56 -26 56 -26 52.375 C-25 49 -25 49 -22 47 C-20.40657387 46.65443771 -18.79979994 46.36771182 -17.1875 46.125 C-11.49123176 45.07721927 -8.11767313 43.11767313 -4 39 C-4.15715801 35.93541875 -4.47361079 34.48427807 -6.7578125 32.3828125 C-9.26126407 30.83887199 -10.83672827 30.52125355 -13.75 30.3125 C-15.05710937 30.21195313 -15.05710937 30.21195313 -16.390625 30.109375 C-18.77054935 30.00961769 -21.11936251 30.01036925 -23.5 30.0625 C-27 30 -27 30 -29 28 C-29.55021834 21.94759825 -29.55021834 21.94759825 -27.875 19.0625 C-25.06487736 17.47009717 -23.17235276 17.54680675 -20 18 C-17.625 19.875 -17.625 19.875 -16 22 C-16 22.66 -16 23.32 -16 24 C-15.27941406 24.12375 -14.55882812 24.2475 -13.81640625 24.375 C-11.01173808 24.99739516 -8.58216475 25.88817803 -5.9375 27 C-2.97408096 28.24198764 -0.13963431 29.30391479 3 30 C2.28883928 27.76362651 1.55719941 25.53770631 0.8125 23.3125 C0.40644531 22.07113281 0.00039063 20.82976563 -0.41796875 19.55078125 C-2.40726224 15.08592253 -5.10450016 12.56868952 -8.8125 9.5 C-10 8 -10 8 -10.375 5.5 C-10 3 -10 3 -8.9375 1.1875 C-5.90624457 -0.67036623 -3.46577141 -0.37133265 0 0 Z " fill="#FFA013" transform="translate(42,14)"/>
  <path d="M0 0 C2.375 1.875 2.375 1.875 4 4 C4 4.66 4 5.32 4 6 C4.72058594 6.12503906 5.44117188 6.25007813 6.18359375 6.37890625 C8.97316275 6.99408166 11.42221276 7.85608405 14.0625 8.9375 C14.89910156 9.27652344 15.73570313 9.61554687 16.59765625 9.96484375 C18.77683537 10.90383963 20.89101521 11.91384848 23 13 C22.34 13 21.68 13 21 13 C20.01097084 17.15646125 20.01097084 17.15646125 20.8125 21.25 C22.01545501 23.14083653 22.01545501 23.14083653 24 25 C23.14728516 25.22042969 23.14728516 25.22042969 22.27734375 25.4453125 C16.42454344 27.14545817 12.05284051 29.36658729 8 34 C7.484375 35.0725 6.96875 36.145 6.4375 37.25 C5 40 5 40 2.125 41.625 C-1 42 -1 42 -3.9375 40.5625 C-6 38 -6 38 -6 34.375 C-5 31 -5 31 -2 29 C-0.40657387 28.65443771 1.20020006 28.36771182 2.8125 28.125 C8.50876824 27.07721927 11.88232687 25.11767313 16 21 C15.84284199 17.93541875 15.52638921 16.48427807 13.2421875 14.3828125 C10.73873593 12.83887199 9.16327173 12.52125355 6.25 12.3125 C4.94289063 12.21195313 4.94289063 12.21195313 3.609375 12.109375 C1.22945065 12.00961769 -1.11936251 12.01036925 -3.5 12.0625 C-7 12 -7 12 -9 10 C-9.55021834 3.94759825 -9.55021834 3.94759825 -7.875 1.0625 C-5.06487736 -0.52990283 -3.17235276 -0.45319325 0 0 Z " fill="#FFB341" transform="translate(22,32)"/>
  <path d="M0 0 C2.37935912 1.68215157 2.93160885 2.63786328 3.4765625 5.5234375 C3.52554688 6.46445312 3.57453125 7.40546875 3.625 8.375 C3.8354908 12.0134839 4.210037 15.43869138 5 19 C3.02 19 1.04 19 -1 19 C-1.391875 18.071875 -1.78375 17.14375 -2.1875 16.1875 C-3.71053984 12.85992882 -3.71053984 12.85992882 -6.625 11.5625 C-9 10 -9 10 -10 6.5 C-10 3 -10 3 -9 1.0625 C-5.90131981 -0.58367385 -3.43858351 -0.36841966 0 0 Z " fill="#FFBE5E" transform="translate(42,14)"/>
  <path d="M0 0 C0 0.99 0 1.98 0 3 C-0.763125 3.598125 -1.52625 4.19625 -2.3125 4.8125 C-5.20326963 6.83721702 -5.20326963 6.83721702 -6.4375 10.125 C-8 13 -8 13 -10.875 14.625 C-14 15 -14 15 -16.9375 13.5625 C-19 11 -19 11 -19 7.375 C-18 4 -18 4 -15 2 C-12.6953125 1.3671875 -12.6953125 1.3671875 -10.125 0.875 C-8.86042969 0.62363281 -8.86042969 0.62363281 -7.5703125 0.3671875 C-5.00848085 0.00121155 -2.58390011 -0.06482904 0 0 Z " fill="#FFC166" transform="translate(35,59)"/>
  <path d="M0 0 C2.64 0.66 5.28 1.32 8 2 C9.32278481 7.41139241 9.32278481 7.41139241 7.9375 9.9375 C5.05088988 11.52047975 3.1283804 10.76613397 0 10 C-0.78375 9.814375 -1.5675 9.62875 -2.375 9.4375 C-3.179375 9.2209375 -3.179375 9.2209375 -4 9 C-4 8.34 -4 7.68 -4 7 C-3.525625 6.54625 -3.05125 6.0925 -2.5625 5.625 C-0.61483273 3.8691594 -0.61483273 3.8691594 0 0 Z " fill="#FFE9C8" transform="translate(79,36)"/>
  <path d="M0 0 C2.25 0.125 2.25 0.125 5 1 C7.3125 4.0625 7.3125 4.0625 9 7 C8 9 8 9 6 10 C2.5 10.1875 2.5 10.1875 -1 10 C-1.66 9.34 -2.32 8.68 -3 8 C-2.625 4.875 -2.625 4.875 -2 2 C-1.34 2 -0.68 2 0 2 C0 1.34 0 0.68 0 0 Z " fill="#FFDEAD" transform="translate(52,72)"/>
  <path d="M0 0 C1.875 1.125 1.875 1.125 3 3 C2.6875 6.1875 2.6875 6.1875 2 9 C-0.75 9.75 -0.75 9.75 -4 10 C-6.57850974 8.11838478 -7.74016006 6.77951983 -8.75 3.75 C-8.8325 3.1725 -8.915 2.595 -9 2 C-5.88578592 0.1545398 -3.61678684 -0.46369062 0 0 Z " fill="#FFE3BB" transform="translate(41,15)"/>
  <path d="M0 0 C1.670625 0.061875 1.670625 0.061875 3.375 0.125 C4.75611722 2.3997813 5.43194702 3.62671361 5.125 6.3125 C4.375 8.125 4.375 8.125 2.375 9.125 C-0.625 9.3125 -0.625 9.3125 -3.625 9.125 C-5.625 7.125 -5.625 7.125 -5.875 4.625 C-5.45054733 0.38047335 -4.12667778 0.14229923 0 0 Z " fill="#FFF2E0" transform="translate(19.625,33.875)"/>
  <path d="M0 0 C2.875 -0.125 2.875 -0.125 6 0 C8 2 8 2 8.25 5.4375 C8 9 8 9 6 12 C3.03471821 12.0562279 0.31149974 11.95683804 -2.625 11.6875 C-3.42679688 11.62626953 -4.22859375 11.56503906 -5.0546875 11.50195312 C-7.03758124 11.34851492 -9.01898519 11.17604307 -11 11 C-11 9.68 -11 8.36 -11 7 C-11.66 6.67 -12.32 6.34 -13 6 C-8.545 5.505 -8.545 5.505 -4 5 C-3.67 3.68 -3.34 2.36 -3 1 C-2.34 1.33 -1.68 1.66 -1 2 C-2.375 4.5 -2.375 4.5 -4 7 C-4.66 7 -5.32 7 -6 7 C-6 7.66 -6 8.32 -6 9 C-2.04 9.33 1.92 9.66 6 10 C6 7.36 6 4.72 6 2 C3.03 1.505 3.03 1.505 0 1 C0 0.67 0 0.34 0 0 Z " fill="#FFC266" transform="translate(81,36)"/>
  <path d="M0 0 C2.375 1.875 2.375 1.875 4 4 C4 4.66 4 5.32 4 6 C5.65 6.33 7.3 6.66 9 7 C9.33 8.65 9.66 10.3 10 12 C7.20807795 12.05380578 4.4171859 12.09357669 1.625 12.125 C0.8309375 12.14175781 0.036875 12.15851562 -0.78125 12.17578125 C-2.85492015 12.19335473 -4.92883241 12.10335168 -7 12 C-9 10 -9 10 -9.3125 6.5625 C-9 3 -9 3 -7.875 1.0625 C-5.06487736 -0.52990283 -3.17235276 -0.45319325 0 0 Z M-8 4 C-8.33333333 6.5 -8.33333333 6.5 -8 9 C-6.12226736 11.30746414 -6.12226736 11.30746414 -3.0625 11.25 C0.17282787 11.23517754 0.17282787 11.23517754 3 9 C2.34414811 5.39007621 2.34414811 5.39007621 1 2 C-4.0205829 1.49708619 -4.0205829 1.49708619 -8 4 Z " fill="#FFC46D" transform="translate(22,32)"/>
  <path d="M0 0 C0.19335938 0.62648438 0.38671875 1.25296875 0.5859375 1.8984375 C0.84632812 2.71570313 1.10671875 3.53296875 1.375 4.375 C1.63023438 5.18710938 1.88546875 5.99921875 2.1484375 6.8359375 C2.89854283 9.16459185 2.89854283 9.16459185 5 11 C4.625 13.125 4.625 13.125 4 15 C3.4225 14.030625 2.845 13.06125 2.25 12.0625 C0.35207138 8.90530708 0.35207138 8.90530708 -2.25 8.125 C-3.11625 8.063125 -3.11625 8.063125 -4 8 C-4 8.66 -4 9.32 -4 10 C-4.66 10 -5.32 10 -6 10 C-6.04254356 11.99954746 -6.04080783 14.00041636 -6 16 C-4.83016556 17.39681568 -4.83016556 17.39681568 -1.5625 17.125 C1.84105584 17.2526281 1.84105584 17.2526281 4 16 C3 19 3 19 1 20 C-4.21653972 20.44396083 -4.21653972 20.44396083 -6.875 18.9375 C-8.64273274 15.8930714 -8.36823916 13.4368988 -8 10 C-6.5625 8.3125 -6.5625 8.3125 -5 7 C-4.835 6.34 -4.67 5.68 -4.5 5 C-3.95398612 2.81594448 -2.59993157 0 0 0 Z " fill="#FFC062" transform="translate(56,64)"/>
  <path d="M0 0 C2.0625 2.1875 2.0625 2.1875 4 5 C3.75 7.8125 3.75 7.8125 3 10 C0.69 9.67 -1.62 9.34 -4 9 C-4.625 6.6875 -4.625 6.6875 -5 4 C-3 1 -3 1 0 0 Z " fill="#FFFAF4" transform="translate(22,62)"/>
  <path d="M0 0 C0.33 0 0.66 0 1 0 C1.33 4.62 1.66 9.24 2 14 C1.01 14.33 0.02 14.66 -1 15 C-1.33 16.32 -1.66 17.64 -2 19 C-2.99 14.71 -3.98 10.42 -5 6 C-3.35 5.67 -1.7 5.34 0 5 C0 3.35 0 1.7 0 0 Z " fill="#FFAA2C" transform="translate(53,52)"/>
  <path d="M0 0 C3.96 0 7.92 0 12 0 C12 1.32 12 2.64 12 4 C8.37 4.33 4.74 4.66 1 5 C0.67 3.35 0.34 1.7 0 0 Z " fill="#FFAD32" transform="translate(58,43)"/>
  <path d="M0 0 C2.8125 0.5625 2.8125 0.5625 6 2 C7.44088563 4.28536073 8.13569208 6.40707624 9 9 C4.25 10 4.25 10 2 10 C1.34 6.7 0.68 3.4 0 0 Z " fill="#FFB340" transform="translate(42,32)"/>
  <path d="M0 0 C1.65 0 3.3 0 5 0 C6.3323486 6.29837518 6.3323486 6.29837518 4.875 9.375 C2.53454453 11.40339474 1.09321432 11.92266964 -2 12 C-3.8125 10.5625 -3.8125 10.5625 -5 9 C-2.69 9 -0.38 9 2 9 C1.41196203 5.97580475 0.77321882 2.98241547 0 0 Z " fill="#FFD28F" transform="translate(23,62)"/>
  <path d="M0 0 C1.32 0.33 2.64 0.66 4 1 C4.6875 3.8125 4.6875 3.8125 5 7 C3.5625 8.875 3.5625 8.875 2 10 C0 8 0 8 -0.1953125 6.0546875 C-0.13020833 4.03645833 -0.06510417 2.01822917 0 0 Z " fill="#FFF2DF" transform="translate(83,37)"/>
  <path d="M0 0 C3.8063457 0.67170806 7.35206816 1.72746564 11 3 C9.515 5.475 9.515 5.475 8 8 C6.84772177 7.23883449 5.7033614 6.46567307 4.5625 5.6875 C3.92441406 5.25824219 3.28632812 4.82898437 2.62890625 4.38671875 C1 3 1 3 0 0 Z " fill="#FFB74B" transform="translate(30,40)"/>
  <path d="M0 0 C1.2065625 0.0309375 1.2065625 0.0309375 2.4375 0.0625 C3.0975 1.3825 3.7575 2.7025 4.4375 4.0625 C-0.0175 4.5575 -0.0175 4.5575 -4.5625 5.0625 C-3.31710123 0.08090491 -3.31710123 0.08090491 0 0 Z " fill="#FFF6E9" transform="translate(38.5625,14.9375)"/>
  <path d="M0 0 C-0.99 0.495 -0.99 0.495 -2 1 C-2.65772428 4.02934491 -2.65772428 4.02934491 -3 7 C-3.66 7 -4.32 7 -5 7 C-5 7.99 -5 8.98 -5 10 C-5.66 9.67 -6.32 9.34 -7 9 C-7 6.36 -7 3.72 -7 1 C-4.53721199 -0.231394 -2.7204945 -0.07159196 0 0 Z " fill="#FFAA2C" transform="translate(45,44)"/>
  <path d="M0 0 C2.375 0.3125 2.375 0.3125 5 1 C5.66 1.99 6.32 2.98 7 4 C3.7 4.33 0.4 4.66 -3 5 C-2.67 4.01 -2.34 3.02 -2 2 C-1.34 2 -0.68 2 0 2 C0 1.34 0 0.68 0 0 Z " fill="#FFD28E" transform="translate(52,72)"/>
  <path d="M0 0 C0.33 0 0.66 0 1 0 C1 2.31 1 4.62 1 7 C0.01 7.33 -0.98 7.66 -2 8 C-2.73323796 10.01508358 -2.73323796 10.01508358 -3 12 C-3.33 9.36 -3.66 6.72 -4 4 C-2.68 3.67 -1.36 3.34 0 3 C0 2.01 0 1.02 0 0 Z " fill="#FFB341" transform="translate(54,59)"/>
  <path d="M0 0 C0.99 0 1.98 0 3 0 C2.67 2.31 2.34 4.62 2 7 C0.68 7 -0.64 7 -2 7 C-2.125 4.625 -2.125 4.625 -2 2 C-1.34 1.34 -0.68 0.68 0 0 Z " fill="#FFFDFB" transform="translate(16,34)"/>
  <path d="M0 0 C-0.33 0.99 -0.66 1.98 -1 3 C-3.31 3 -5.62 3 -8 3 C-8.33 2.01 -8.66 1.02 -9 0 C-5.62182575 -0.84454356 -3.32534757 -1.10844919 0 0 Z " fill="#FFE9C9" transform="translate(59,79)"/>
  <path d="M0 0 C0.66 0 1.32 0 2 0 C2 3.3 2 6.6 2 10 C-0.97 9.505 -0.97 9.505 -4 9 C-4 8.34 -4 7.68 -4 7 C-3.525625 6.54625 -3.05125 6.0925 -2.5625 5.625 C-0.77906263 3.77022513 -0.4308007 2.49864408 0 0 Z " fill="#FFD9A2" transform="translate(79,36)"/>
  <path d="M0 0 C2.97 0.495 2.97 0.495 6 1 C6.33 1.99 6.66 2.98 7 4 C2.25 5 2.25 5 0 5 C0 3.35 0 1.7 0 0 Z " fill="#FFAD31" transform="translate(44,37)"/>
  <path d="M0 0 C2.0625 2.1875 2.0625 2.1875 4 5 C3.75 7.8125 3.75 7.8125 3 10 C2.67 10 2.34 10 2 10 C1.87625 9.195625 1.7525 8.39125 1.625 7.5625 C1.41875 6.716875 1.2125 5.87125 1 5 C0.34 4.67 -0.32 4.34 -1 4 C-1 3.34 -1 2.68 -1 2 C-1.66 1.67 -2.32 1.34 -3 1 C-2.01 0.67 -1.02 0.34 0 0 Z " fill="#FFF1DC" transform="translate(22,62)"/>
  <path d="M0 0 C0.33 0.99 0.66 1.98 1 3 C0.01 4.485 0.01 4.485 -1 6 C-1.66 6 -2.32 6 -3 6 C-3.66 4.68 -4.32 3.36 -5 2 C-3.35 1.34 -1.7 0.68 0 0 Z " fill="#FFCF87" transform="translate(44,23)"/>
  <path d="M0 0 C0.99 0.33 1.98 0.66 3 1 C3.33 2.98 3.66 4.96 4 7 C3.01 7 2.02 7 1 7 C0.67 4.69 0.34 2.38 0 0 Z " fill="#FFFBF5" transform="translate(84,37)"/>
  <path d="M0 0 C1.5625 1.75 1.5625 1.75 3 4 C2.875 6.1875 2.875 6.1875 2 8 C1.01 8.33 0.02 8.66 -1 9 C-0.67 6.03 -0.34 3.06 0 0 Z " fill="#FFE3BA" transform="translate(22,34)"/>
  <path d="M0 0 C2.475 0.495 2.475 0.495 5 1 C5.33 2.65 5.66 4.3 6 6 C4.125 5.8125 4.125 5.8125 2 5 C0.75 2.4375 0.75 2.4375 0 0 Z " fill="#FFC671" transform="translate(26,38)"/>
</svg>
